<?xml version="1.0" encoding="UTF-8" standalone="no"?>
<!-- Created with Inkscape (http://www.inkscape.org/) -->

<svg
   xmlns:dc="http://purl.org/dc/elements/1.1/"
   xmlns:cc="http://creativecommons.org/ns#"
   xmlns:rdf="http://www.w3.org/1999/02/22-rdf-syntax-ns#"
   xmlns:svg="http://www.w3.org/2000/svg"
   xmlns="http://www.w3.org/2000/svg"
   xmlns:sodipodi="http://sodipodi.sourceforge.net/DTD/sodipodi-0.dtd"
   xmlns:inkscape="http://www.inkscape.org/namespaces/inkscape"
   width="210mm"
   height="297mm"
   viewBox="0 0 210 297"
   version="1.1"
   id="svg8"
   inkscape:version="0.92.3 (2405546, 2018-03-11)"
   sodipodi:docname="carticon.svg">
  <defs
     id="defs2">
    <marker
       inkscape:stockid="Arrow1Lstart"
       orient="auto"
       refY="0.0"
       refX="0.0"
       id="marker1097"
       style="overflow:visible"
       inkscape:isstock="true">
      <path
         id="path1095"
         d="M 0.0,0.0 L 5.0,-5.0 L -12.5,0.0 L 5.0,5.0 L 0.0,0.0 z "
         style="fill-rule:evenodd;stroke:#000000;stroke-width:1pt;stroke-opacity:1;fill:#000000;fill-opacity:1"
         transform="scale(0.8) translate(12.5,0)" />
    </marker>
    <marker
       inkscape:stockid="Arrow1Lstart"
       orient="auto"
       refY="0.0"
       refX="0.0"
       id="Arrow1Lstart"
       style="overflow:visible"
       inkscape:isstock="true">
      <path
         id="path819"
         d="M 0.0,0.0 L 5.0,-5.0 L -12.5,0.0 L 5.0,5.0 L 0.0,0.0 z "
         style="fill-rule:evenodd;stroke:#000000;stroke-width:1pt;stroke-opacity:1;fill:#000000;fill-opacity:1"
         transform="scale(0.8) translate(12.5,0)" />
    </marker>
  </defs>
  <sodipodi:namedview
     id="base"
     pagecolor="#ffffff"
     bordercolor="#666666"
     borderopacity="1.0"
     inkscape:pageopacity="0.0"
     inkscape:pageshadow="2"
     inkscape:zoom="0.35"
     inkscape:cx="436.62853"
     inkscape:cy="811.63719"
     inkscape:document-units="mm"
     inkscape:current-layer="layer1"
     showgrid="false"
     inkscape:window-width="1366"
     inkscape:window-height="705"
     inkscape:window-x="-8"
     inkscape:window-y="-8"
     inkscape:window-maximized="1" />
  <metadata
     id="metadata5">
    <rdf:RDF>
      <cc:Work
         rdf:about="">
        <dc:format>image/svg+xml</dc:format>
        <dc:type
           rdf:resource="http://purl.org/dc/dcmitype/StillImage" />
        <dc:title />
      </cc:Work>
    </rdf:RDF>
  </metadata>
  <g
     inkscape:label="Layer 1"
     inkscape:groupmode="layer"
     id="layer1">
    <path
       style="color:#ffffff;font-style:normal;font-variant:normal;font-weight:normal;font-stretch:normal;font-size:medium;line-height:normal;font-family:sans-serif;font-variant-ligatures:normal;font-variant-position:normal;font-variant-caps:normal;font-variant-numeric:normal;font-variant-alternates:normal;font-feature-settings:normal;text-indent:0;text-align:start;text-decoration:none;text-decoration-line:none;text-decoration-style:solid;text-decoration-color:#000000;letter-spacing:normal;word-spacing:normal;text-transform:none;writing-mode:lr-tb;direction:ltr;text-orientation:mixed;dominant-baseline:auto;baseline-shift:baseline;text-anchor:start;white-space:normal;shape-padding:0;clip-rule:nonzero;display:inline;overflow:visible;visibility:visible;opacity:1;isolation:auto;mix-blend-mode:normal;color-interpolation:sRGB;color-interpolation-filters:linearRGB;solid-color:#000000;solid-opacity:1;vector-effect:none;fill:#000000;fill-opacity:1;fill-rule:nonzero;stroke:none;stroke-width:15.0094986;stroke-linecap:round;stroke-linejoin:round;stroke-miterlimit:4;stroke-dasharray:none;stroke-dashoffset:0;stroke-opacity:1;color-rendering:auto;image-rendering:auto;shape-rendering:auto;text-rendering:auto;enable-background:accumulate"
       d="m 39.218611,56.506762 -30.0660274,1.13476 c -4.142365,0.156142 -7.37383,3.640771 -7.2176877,7.783131 0.1561423,4.142361 3.6407627,7.373834 7.7831277,7.217692 L 34.17309,71.718562 62.075867,154.93048 c -13.857615,4.46355 -21.970488,15.05179 -20.832066,25.97377 1.244482,11.9395 12.993846,21.09191 28.327825,21.09191 H 197.78525 c 4.18815,0.0619 7.61652,-3.31608 7.61652,-7.50469 0,-4.1886 -3.42837,-7.56663 -7.61652,-7.50468 H 69.571626 c -9.951874,0 -13.067389,-4.44907 -13.399907,-7.63925 -0.332522,-3.19017 1.568124,-8.3035 13.139293,-10.84418 L 190.09791,141.98354 c 2.51974,-0.0809 4.83054,-1.42149 6.15157,-3.5687 1.17992,-1.82491 1.51096,-4.07167 0.9075,-6.15934 l -5.53029,-48.67279 c -0.43142,-3.792949 -3.64113,-6.657858 -7.45853,-6.657294 H 51.749808 L 46.617416,61.619763 C 45.558367,58.462903 42.546013,56.38119 39.218611,56.506762 Z M 51.220046,204.33858 c -9.991913,0 -18.289525,8.29839 -18.289525,18.2903 0,9.99192 8.297612,18.28953 18.289525,18.28953 9.991917,0 18.290307,-8.29761 18.290307,-18.28953 0,-9.99191 -8.29839,-18.2903 -18.290307,-18.2903 z m 126.141124,4.76706 c -9.99191,0 -18.28954,8.29762 -18.28954,18.28953 0,9.99192 8.29763,18.29032 18.28954,18.29031 9.9919,0 18.2903,-8.29839 18.2903,-18.29031 0,-9.99191 -8.2984,-18.28953 -18.2903,-18.28953 z"
       id="path815"
       inkscape:connector-curvature="0"
       sodipodi:nodetypes="ccscccsscscsccccccccccssssssscss" />
  </g>
</svg>
